<?xml version="1.0" encoding="UTF-8"?>
<svg version="1.1" xmlns="http://www.w3.org/2000/svg" width="2048" height="2048">
<path d="M0 0 C7.26 0 14.52 0 22 0 C22 0.66 22 1.32 22 2 C23.32 2 24.64 2 26 2 C26 3.32 26 4.64 26 6 C27.65 6.33 29.3 6.66 31 7 C31 9.64 31 12.28 31 15 C32.32 15 33.64 15 35 15 C35 17.97 35 20.94 35 24 C36.65 24.33 38.3 24.66 40 25 C40 28.96 40 32.92 40 37 C41.32 37.33 42.64 37.66 44 38 C44.33 40.64 44.66 43.28 45 46 C45.99 46.33 46.98 46.66 48 47 C49.10228696 51.40914783 49.07654536 55.48382401 49 60 C50.32 60 51.64 60 53 60 C53 64.29 53 68.58 53 73 C54.32 73 55.64 73 57 73 C57 75.97 57 78.94 57 82 C58.65 82.33 60.3 82.66 62 83 C62 86.96 62 90.92 62 95 C63.32 95 64.64 95 66 95 C66 97.97 66 100.94 66 104 C67.65 104.33 69.3 104.66 71 105 C71 109.29 71 113.58 71 118 C72.32 118 73.64 118 75 118 C75 120.97 75 123.94 75 127 C76.32 127 77.64 127 79 127 C80.32229189 129.64458379 80.09677194 131.67761301 80.0625 134.625 C80.05347656 135.62789062 80.04445313 136.63078125 80.03515625 137.6640625 C80.02355469 138.43492187 80.01195312 139.20578125 80 140 C81.32 140 82.64 140 84 140 C84 142.97 84 145.94 84 149 C85.32 149 86.64 149 88 149 C88 153.29 88 157.58 88 162 C89.65 162.33 91.3 162.66 93 163 C93.33 166.96 93.66 170.92 94 175 C94.99 175.33 95.98 175.66 97 176 C97 178.64 97 181.28 97 184 C98.65 184.33 100.3 184.66 102 185 C102 189.29 102 193.58 102 198 C103.32 198 104.64 198 106 198 C106 200.97 106 203.94 106 207 C107.32 207 108.64 207 110 207 C111.32229189 209.64458379 111.09677194 211.67761301 111.0625 214.625 C111.05347656 215.62789062 111.04445313 216.63078125 111.03515625 217.6640625 C111.02355469 218.43492187 111.01195312 219.20578125 111 220 C112.32 220 113.64 220 115 220 C115 222.97 115 225.94 115 229 C116.32 229 117.64 229 119 229 C120.10228696 233.40914783 120.07654536 237.48382401 120 242 C121.32 242.33 122.64 242.66 124 243 C124 245.64 124 248.28 124 251 C125.32 251.33 126.64 251.66 128 252 C128 256.29 128 260.58 128 265 C129.65 265 131.3 265 133 265 C133 267.97 133 270.94 133 274 C134.32 274 135.64 274 137 274 C137 278.29 137 282.58 137 287 C138.65 287.33 140.3 287.66 142 288 C142 291.96 142 295.92 142 300 C143.32 300 144.64 300 146 300 C146 302.97 146 305.94 146 309 C147.32 309 148.64 309 150 309 C151.32229189 311.64458379 151.09677194 313.67761301 151.0625 316.625 C151.05347656 317.62789063 151.04445313 318.63078125 151.03515625 319.6640625 C151.02355469 320.43492187 151.01195312 321.20578125 151 322 C152.32 322.33 153.64 322.66 155 323 C155 325.64 155 328.28 155 331 C156.32 331.33 157.64 331.66 159 332 C159 336.29 159 340.58 159 345 C160.65 345 162.3 345 164 345 C164 347.97 164 350.94 164 354 C165.32 354 166.64 354 168 354 C168 358.29 168 362.58 168 367 C169.65 367.33 171.3 367.66 173 368 C173 370.64 173 373.28 173 376 C174.32 376.33 175.64 376.66 177 377 C177 380.96 177 384.92 177 389 C178.65 389.66 180.3 390.32 182 391 C182 394.96 182 398.92 182 403 C183.32 403 184.64 403 186 403 C186 405.97 186 408.94 186 412 C187.32 412 188.64 412 190 412 C190 422.23 190 432.46 190 443 C188.68 443 187.36 443 186 443 C186 444.32 186 445.64 186 447 C184.68 447 183.36 447 182 447 C182 448.32 182 449.64 182 451 C180.35 451.33 178.7 451.66 177 452 C176.67 453.32 176.34 454.64 176 456 C173.36 456 170.72 456 168 456 C168 457.32 168 458.64 168 460 C165.03 460 162.06 460 159 460 C159 461.65 159 463.3 159 465 C156.36 465 153.72 465 151 465 C150.67 466.32 150.34 467.64 150 469 C147.36 469 144.72 469 142 469 C141.67 470.65 141.34 472.3 141 474 C138.36 474 135.72 474 133 474 C133 475.32 133 476.64 133 478 C130.03 478 127.06 478 124 478 C123.67 479.65 123.34 481.3 123 483 C120.36 483 117.72 483 115 483 C115 484.32 115 485.64 115 487 C112.03 487 109.06 487 106 487 C106 488.65 106 490.3 106 492 C104.68 492 103.36 492 102 492 C101.67 493.32 101.34 494.64 101 496 C98.36 496 95.72 496 93 496 C92.67 497.32 92.34 498.64 92 500 C89.36 500.33 86.72 500.66 84 501 C83.67 502.32 83.34 503.64 83 505 C80.36 505 77.72 505 75 505 C75 506.32 75 507.64 75 509 C72.03 509 69.06 509 66 509 C66 510.65 66 512.3 66 514 C63.03 514 60.06 514 57 514 C57 515.32 57 516.64 57 518 C54.36 518 51.72 518 49 518 C48.67 519.65 48.34 521.3 48 523 C45.36 523 42.72 523 40 523 C40 524.32 40 525.64 40 527 C38.35 527 36.7 527 35 527 C35 528.32 35 529.64 35 531 C32.04335481 532.4783226 29.25770263 532.06032783 26 532 C25.67 533.32 25.34 534.64 25 536 C22.36 536 19.72 536 17 536 C17 537.32 17 538.64 17 540 C14.36 540.33 11.72 540.66 9 541 C8.67 542.32 8.34 543.64 8 545 C5.36 545 2.72 545 0 545 C0 546.32 0 547.64 0 549 C-2.97 549.33 -5.94 549.66 -9 550 C-9 551.32 -9 552.64 -9 554 C-11.97 554 -14.94 554 -18 554 C-18 555.32 -18 556.64 -18 558 C-20.97 558 -23.94 558 -27 558 C-27 559.65 -27 561.3 -27 563 C-29.97 563 -32.94 563 -36 563 C-36 564.32 -36 565.64 -36 567 C-37.32 567 -38.64 567 -40 567 C-40 568.32 -40 569.64 -40 571 C-42.95664519 572.4783226 -45.74229737 572.06032783 -49 572 C-49.33 573.32 -49.66 574.64 -50 576 C-52.64 576 -55.28 576 -58 576 C-58.33 577.65 -58.66 579.3 -59 581 C-61.64 581 -64.28 581 -67 581 C-67 582.32 -67 583.64 -67 585 C-69.97 585 -72.94 585 -76 585 C-76.33 586.65 -76.66 588.3 -77 590 C-79.31 590 -81.62 590 -84 590 C-84.33 591.32 -84.66 592.64 -85 594 C-87.64 594 -90.28 594 -93 594 C-93 595.32 -93 596.64 -93 598 C-94.65 598.33 -96.3 598.66 -98 599 C-98.33 600.32 -98.66 601.64 -99 603 C-101.64 603 -104.28 603 -107 603 C-107 604.32 -107 605.64 -107 607 C-109.97 607 -112.94 607 -116 607 C-116 608.65 -116 610.3 -116 612 C-118.64 612 -121.28 612 -124 612 C-124.33 613.32 -124.66 614.64 -125 616 C-127.64 616 -130.28 616 -133 616 C-133.33 617.65 -133.66 619.3 -134 621 C-136.64 621 -139.28 621 -142 621 C-142 622.32 -142 623.64 -142 625 C-144.97 625 -147.94 625 -151 625 C-151 626.65 -151 628.3 -151 630 C-153.97 630 -156.94 630 -160 630 C-160 631.32 -160 632.64 -160 634 C-161.32 634 -162.64 634 -164 634 C-164.33 635.32 -164.66 636.64 -165 638 C-167.64 638.33 -170.28 638.66 -173 639 C-173.33 640.32 -173.66 641.64 -174 643 C-176.64 643 -179.28 643 -182 643 C-182 644.32 -182 645.64 -182 647 C-184.97 647.33 -187.94 647.66 -191 648 C-191 649.32 -191 650.64 -191 652 C-193.97 652 -196.94 652 -200 652 C-200 653.32 -200 654.64 -200 656 C-202.97 656 -205.94 656 -209 656 C-209 657.65 -209 659.3 -209 661 C-211.64 661 -214.28 661 -217 661 C-217.33 662.32 -217.66 663.64 -218 665 C-219.32 665 -220.64 665 -222 665 C-222 666.32 -222 667.64 -222 669 C-224.95664519 670.4783226 -227.74229737 670.06032783 -231 670 C-231 671.32 -231 672.64 -231 674 C-233.97 674 -236.94 674 -240 674 C-240.33 675.65 -240.66 677.3 -241 679 C-243.64 679 -246.28 679 -249 679 C-249 680.32 -249 681.64 -249 683 C-251.64 683 -254.28 683 -257 683 C-257 684.32 -257 685.64 -257 687 C-259.95664519 688.4783226 -262.74229737 688.06032783 -266 688 C-266 689.32 -266 690.64 -266 692 C-268.97 692 -271.94 692 -275 692 C-275 693.32 -275 694.64 -275 696 C-277.97 696 -280.94 696 -284 696 C-284 697.65 -284 699.3 -284 701 C-285.65 701 -287.3 701 -289 701 C-289 702.32 -289 703.64 -289 705 C-291.64 705 -294.28 705 -297 705 C-297.144375 705.639375 -297.28875 706.27875 -297.4375 706.9375 C-298 709 -298 709 -299 710 C-301.33297433 710.04092937 -303.66705225 710.04241723 -306 710 C-306.33 711.32 -306.66 712.64 -307 714 C-309.64 714 -312.28 714 -315 714 C-315.33 715.65 -315.66 717.3 -316 719 C-318.64 719 -321.28 719 -324 719 C-324 720.32 -324 721.64 -324 723 C-326.97 723 -329.94 723 -333 723 C-333 724.65 -333 726.3 -333 728 C-335.97 728 -338.94 728 -342 728 C-342 729.32 -342 730.64 -342 732 C-343.32 732 -344.64 732 -346 732 C-346.33 733.32 -346.66 734.64 -347 736 C-349.64 736.33 -352.28 736.66 -355 737 C-355.33 738.32 -355.66 739.64 -356 741 C-358.64 741 -361.28 741 -364 741 C-364 742.32 -364 743.64 -364 745 C-366.97 745 -369.94 745 -373 745 C-373 746.65 -373 748.3 -373 750 C-375.97 750 -378.94 750 -382 750 C-382 751.32 -382 752.64 -382 754 C-384.64 754 -387.28 754 -390 754 C-390.33 755.65 -390.66 757.3 -391 759 C-393.64 759 -396.28 759 -399 759 C-399 760.32 -399 761.64 -399 763 C-400.65 763 -402.3 763 -404 763 C-404 764.32 -404 765.64 -404 767 C-406.95664519 768.4783226 -409.74229737 768.06032783 -413 768 C-413.33 769.32 -413.66 770.64 -414 772 C-416.64 772 -419.28 772 -422 772 C-422.33 773.65 -422.66 775.3 -423 777 C-425.31 777 -427.62 777 -430 777 C-430.33 778.32 -430.66 779.64 -431 781 C-433.64 781 -436.28 781 -439 781 C-439 782.32 -439 783.64 -439 785 C-441.95664519 786.4783226 -444.74229737 786.06032783 -448 786 C-448 787.32 -448 788.64 -448 790 C-450.97 790 -453.94 790 -457 790 C-457 791.32 -457 792.64 -457 794 C-459.97 794 -462.94 794 -466 794 C-466 795.65 -466 797.3 -466 799 C-468.97 799 -471.94 799 -475 799 C-475 800.32 -475 801.64 -475 803 C-477.97 803 -480.94 803 -484 803 C-484 804.65 -484 806.3 -484 808 C-485.32 808 -486.64 808 -488 808 C-488 809.32 -488 810.64 -488 812 C-489.32 812 -490.64 812 -492 812 C-492 817.94 -492 823.88 -492 830 C-490.68 830 -489.36 830 -488 830 C-488 832.97 -488 835.94 -488 839 C-486.68 839 -485.36 839 -484 839 C-484 841.97 -484 844.94 -484 848 C-482.35 848 -480.7 848 -479 848 C-479 849.65 -479 851.3 -479 853 C-477.68 853 -476.36 853 -475 853 C-475 855.64 -475 858.28 -475 861 C-473.35 861.66 -471.7 862.32 -470 863 C-470 865.31 -470 867.62 -470 870 C-468.68 870.33 -467.36 870.66 -466 871 C-466 873.64 -466 876.28 -466 879 C-464.68 879.33 -463.36 879.66 -462 880 C-461.67 882.64 -461.34 885.28 -461 888 C-459.68 888.33 -458.36 888.66 -457 889 C-457 891.64 -457 894.28 -457 897 C-455.68 897 -454.36 897 -453 897 C-453 899.97 -453 902.94 -453 906 C-451.35 906.33 -449.7 906.66 -448 907 C-448 909.64 -448 912.28 -448 915 C-446.68 915 -445.36 915 -444 915 C-444 917.97 -444 920.94 -444 924 C-442.68 924 -441.36 924 -440 924 C-438.5216774 926.95664519 -438.93967217 929.74229737 -439 933 C-437.68 933 -436.36 933 -435 933 C-435 935.97 -435 938.94 -435 942 C-433.68 942 -432.36 942 -431 942 C-429.5216774 944.95664519 -429.93967217 947.74229737 -430 951 C-428.68 951 -427.36 951 -426 951 C-426 953.64 -426 956.28 -426 959 C-424.68 959.33 -423.36 959.66 -422 960 C-421.67 964.29 -421.34 968.58 -421 973 C-419.68 973 -418.36 973 -417 973 C-417 975.97 -417 978.94 -417 982 C-415.68 982 -414.36 982 -413 982 C-413 984.64 -413 987.28 -413 990 C-411.35 990.33 -409.7 990.66 -408 991 C-408 993.64 -408 996.28 -408 999 C-406.68 999 -405.36 999 -404 999 C-404 1001.97 -404 1004.94 -404 1008 C-402.35 1008.33 -400.7 1008.66 -399 1009 C-399 1011.64 -399 1014.28 -399 1017 C-397.68 1017 -396.36 1017 -395 1017 C-395 1019.97 -395 1022.94 -395 1026 C-393.35 1026.33 -391.7 1026.66 -390 1027 C-390 1029.64 -390 1032.28 -390 1035 C-388.68 1035 -387.36 1035 -386 1035 C-386 1037.97 -386 1040.94 -386 1044 C-384.68 1044 -383.36 1044 -382 1044 C-382 1046.97 -382 1049.94 -382 1053 C-380.35 1053 -378.7 1053 -377 1053 C-377 1055.97 -377 1058.94 -377 1062 C-375.68 1062 -374.36 1062 -373 1062 C-373 1064.97 -373 1067.94 -373 1071 C-371.35 1071 -369.7 1071 -368 1071 C-368 1073.97 -368 1076.94 -368 1080 C-366.68 1080 -365.36 1080 -364 1080 C-364 1082.64 -364 1085.28 -364 1088 C-362.68 1088 -361.36 1088 -360 1088 C-358.5216774 1090.95664519 -358.93967217 1093.74229737 -359 1097 C-357.68 1097.33 -356.36 1097.66 -355 1098 C-355 1100.64 -355 1103.28 -355 1106 C-353.68 1106 -352.36 1106 -351 1106 C-351 1108.97 -351 1111.94 -351 1115 C-349.35 1115 -347.7 1115 -346 1115 C-346 1117.97 -346 1120.94 -346 1124 C-344.68 1124 -343.36 1124 -342 1124 C-342 1126.97 -342 1129.94 -342 1133 C-340.35 1133 -338.7 1133 -337 1133 C-337 1135.97 -337 1138.94 -337 1142 C-335.68 1142 -334.36 1142 -333 1142 C-333 1144.97 -333 1147.94 -333 1151 C-331.35 1151 -329.7 1151 -328 1151 C-328 1153.97 -328 1156.94 -328 1160 C-326.68 1160 -325.36 1160 -324 1160 C-324 1162.97 -324 1165.94 -324 1169 C-322.68 1169 -321.36 1169 -320 1169 C-319.89042969 1169.56589844 -319.78085938 1170.13179687 -319.66796875 1170.71484375 C-319.50941406 1171.44832031 -319.35085938 1172.18179687 -319.1875 1172.9375 C-319.03667969 1173.66839844 -318.88585938 1174.39929687 -318.73046875 1175.15234375 C-318.48941406 1175.76207031 -318.24835937 1176.37179687 -318 1177 C-317.01 1177.33 -316.02 1177.66 -315 1178 C-315 1180.64 -315 1183.28 -315 1186 C-313.68 1186 -312.36 1186 -311 1186 C-311 1188.97 -311 1191.94 -311 1195 C-309.35 1195.33 -307.7 1195.66 -306 1196 C-306 1198.64 -306 1201.28 -306 1204 C-304.68 1204 -303.36 1204 -302 1204 C-302 1206.97 -302 1209.94 -302 1213 C-300.35 1213.33 -298.7 1213.66 -297 1214 C-297 1216.64 -297 1219.28 -297 1222 C-295.68 1222 -294.36 1222 -293 1222 C-293 1224.97 -293 1227.94 -293 1231 C-291.35 1231.33 -289.7 1231.66 -288 1232 C-288 1234.64 -288 1237.28 -288 1240 C-286.68 1240 -285.36 1240 -284 1240 C-284 1242.97 -284 1245.94 -284 1249 C-282.68 1249 -281.36 1249 -280 1249 C-280 1251.97 -280 1254.94 -280 1258 C-278.35 1258 -276.7 1258 -275 1258 C-275 1260.97 -275 1263.94 -275 1267 C-273.68 1267 -272.36 1267 -271 1267 C-271 1269.64 -271 1272.28 -271 1275 C-269.35 1275.33 -267.7 1275.66 -266 1276 C-266 1278.64 -266 1281.28 -266 1284 C-264.68 1284.33 -263.36 1284.66 -262 1285 C-262 1287.64 -262 1290.28 -262 1293 C-260.35 1293.33 -258.7 1293.66 -257 1294 C-257 1296.64 -257 1299.28 -257 1302 C-255.68 1302 -254.36 1302 -253 1302 C-253 1304.97 -253 1307.94 -253 1311 C-251.68 1311 -250.36 1311 -249 1311 C-249 1312.65 -249 1314.3 -249 1316 C-247.35 1316.33 -245.7 1316.66 -244 1317 C-244 1319.64 -244 1322.28 -244 1325 C-242.68 1325 -241.36 1325 -240 1325 C-239.67 1327.64 -239.34 1330.28 -239 1333 C-238.01 1333.33 -237.02 1333.66 -236 1334 C-234.64560332 1336.70879335 -234.93498549 1339.00933268 -235 1342 C-233.68 1342.33 -232.36 1342.66 -231 1343 C-231 1345.64 -231 1348.28 -231 1351 C-230.360625 1351.144375 -229.72125 1351.28875 -229.0625 1351.4375 C-227 1352 -227 1352 -226 1353 C-225.95907063 1355.33297433 -225.95758277 1357.66705225 -226 1360 C-224.68 1360.33 -223.36 1360.66 -222 1361 C-222 1363.64 -222 1366.28 -222 1369 C-220.68 1369.33 -219.36 1369.66 -218 1370 C-216.79767166 1376.42181257 -216.81606961 1382.67296966 -216.8125 1389.1875 C-216.80025391 1390.37537109 -216.78800781 1391.56324219 -216.77539062 1392.78710938 C-216.77345703 1393.92341797 -216.77152344 1395.05972656 -216.76953125 1396.23046875 C-216.76542236 1397.26582764 -216.76131348 1398.30118652 -216.75708008 1399.36791992 C-217 1402 -217 1402 -219 1405 C-219.99 1405 -220.98 1405 -222 1405 C-222 1406.32 -222 1407.64 -222 1409 C-223.32 1409 -224.64 1409 -226 1409 C-226.33 1410.32 -226.66 1411.64 -227 1413 C-229.64 1413 -232.28 1413 -235 1413 C-235.33 1414.65 -235.66 1416.3 -236 1418 C-238.64 1418 -241.28 1418 -244 1418 C-244 1419.32 -244 1420.64 -244 1422 C-245.65 1422 -247.3 1422 -249 1422 C-249 1423.65 -249 1425.3 -249 1427 C-251.64 1427 -254.28 1427 -257 1427 C-257 1428.32 -257 1429.64 -257 1431 C-258.65 1431 -260.3 1431 -262 1431 C-262.33 1432.65 -262.66 1434.3 -263 1436 C-265.64 1436 -268.28 1436 -271 1436 C-271 1437.32 -271 1438.64 -271 1440 C-272.32 1440 -273.64 1440 -275 1440 C-275.33 1441.32 -275.66 1442.64 -276 1444 C-278.64 1444.33 -281.28 1444.66 -284 1445 C-284 1446.32 -284 1447.64 -284 1449 C-285.65 1449 -287.3 1449 -289 1449 C-289 1450.32 -289 1451.64 -289 1453 C-291.64 1453.33 -294.28 1453.66 -297 1454 C-297.33 1455.32 -297.66 1456.64 -298 1458 C-300.64 1458 -303.28 1458 -306 1458 C-306 1459.32 -306 1460.64 -306 1462 C-307.65 1462 -309.3 1462 -311 1462 C-311 1463.65 -311 1465.3 -311 1467 C-313.64 1467 -316.28 1467 -319 1467 C-319.33 1468.32 -319.66 1469.64 -320 1471 C-321.32 1471 -322.64 1471 -324 1471 C-324.33 1472.65 -324.66 1474.3 -325 1476 C-327.64 1476 -330.28 1476 -333 1476 C-333 1477.32 -333 1478.64 -333 1480 C-334.32 1480 -335.64 1480 -337 1480 C-337.12375 1480.639375 -337.2475 1481.27875 -337.375 1481.9375 C-337.58125 1482.618125 -337.7875 1483.29875 -338 1484 C-340.70879335 1485.35439668 -343.00933268 1485.06501451 -346 1485 C-346 1486.32 -346 1487.64 -346 1489 C-347.65 1489 -349.3 1489 -351 1489 C-351 1490.32 -351 1491.64 -351 1493 C-353.64 1493.33 -356.28 1493.66 -359 1494 C-359.33 1495.32 -359.66 1496.64 -360 1498 C-361.32 1498 -362.64 1498 -364 1498 C-364 1499.32 -364 1500.64 -364 1502 C-366.97 1502.33 -369.94 1502.66 -373 1503 C-373 1504.32 -373 1505.64 -373 1507 C-375.97 1507 -378.94 1507 -382 1507 C-382 1508.32 -382 1509.64 -382 1511 C-383.32 1511 -384.64 1511 -386 1511 C-386.33 1512.65 -386.66 1514.3 -387 1516 C-389.64 1516 -392.28 1516 -395 1516 C-395 1517.32 -395 1518.64 -395 1520 C-396.32 1520 -397.64 1520 -399 1520 C-399.33 1521.65 -399.66 1523.3 -400 1525 C-402.64 1525 -405.28 1525 -408 1525 C-408 1526.32 -408 1527.64 -408 1529 C-409.65 1529 -411.3 1529 -413 1529 C-413 1530.32 -413 1531.64 -413 1533 C-415.70879335 1534.35439668 -418.00933268 1534.06501451 -421 1534 C-421.33 1535.32 -421.66 1536.64 -422 1538 C-423.32 1538 -424.64 1538 -426 1538 C-426 1539.32 -426 1540.64 -426 1542 C-428.97 1542.33 -431.94 1542.66 -435 1543 C-435 1544.32 -435 1545.64 -435 1547 C-437.97 1547 -440.94 1547 -444 1547 C-444 1548.32 -444 1549.64 -444 1551 C-445.32 1551.33 -446.64 1551.66 -448 1552 C-448 1553.32 -448 1554.64 -448 1556 C-450.97 1556 -453.94 1556 -457 1556 C-457 1557.32 -457 1558.64 -457 1560 C-458.32 1560 -459.64 1560 -461 1560 C-461.33 1561.65 -461.66 1563.3 -462 1565 C-464.64 1565 -467.28 1565 -470 1565 C-470 1566.32 -470 1567.64 -470 1569 C-471.65 1569 -473.3 1569 -475 1569 C-475 1570.32 -475 1571.64 -475 1573 C-477.95664519 1574.4783226 -480.74229737 1574.06032783 -484 1574 C-484 1575.32 -484 1576.64 -484 1578 C-485.32 1578 -486.64 1578 -488 1578 C-488 1579.32 -488 1580.64 -488 1582 C-490.97 1582.33 -493.94 1582.66 -497 1583 C-497 1584.32 -497 1585.64 -497 1587 C-499.97 1587 -502.94 1587 -506 1587 C-506 1588.65 -506 1590.3 -506 1592 C-507.32 1592 -508.64 1592 -510 1592 C-510 1593.32 -510 1594.64 -510 1596 C-512.97 1596 -515.94 1596 -519 1596 C-519 1597.32 -519 1598.64 -519 1600 C-521.97 1600.33 -524.94 1600.66 -528 1601 C-528 1602.32 -528 1603.64 -528 1605 C-535.26 1605 -542.52 1605 -550 1605 C-550 1603.68 -550 1602.36 -550 1601 C-551.32 1600.67 -552.64 1600.34 -554 1600 C-554 1598.68 -554 1597.36 -554 1596 C-555.65 1595.67 -557.3 1595.34 -559 1595 C-559 1592.36 -559 1589.72 -559 1587 C-560.32 1587 -561.64 1587 -563 1587 C-563 1585.68 -563 1584.36 -563 1583 C-564.65 1582.34 -566.3 1581.68 -568 1581 C-568 1578.69 -568 1576.38 -568 1574 C-569.32 1574 -570.64 1574 -572 1574 C-572 1571.03 -572 1568.06 -572 1565 C-573.65 1564.67 -575.3 1564.34 -577 1564 C-577 1562.68 -577 1561.36 -577 1560 C-578.32 1559.67 -579.64 1559.34 -581 1559 C-581 1556.36 -581 1553.72 -581 1551 C-582.32 1551 -583.64 1551 -585 1551 C-586.35439668 1548.29120665 -586.06501451 1545.99066732 -586 1543 C-587.32 1542.67 -588.64 1542.34 -590 1542 C-590 1540.68 -590 1539.36 -590 1538 C-591.32 1538 -592.64 1538 -594 1538 C-594 1535.03 -594 1532.06 -594 1529 C-595.65 1529 -597.3 1529 -599 1529 C-599 1527.68 -599 1526.36 -599 1525 C-600.32 1524.67 -601.64 1524.34 -603 1524 C-603 1521.36 -603 1518.72 -603 1516 C-604.65 1515.67 -606.3 1515.34 -608 1515 C-608 1512.36 -608 1509.72 -608 1507 C-609.32 1507 -610.64 1507 -612 1507 C-612 1505.35 -612 1503.7 -612 1502 C-613.32 1502 -614.64 1502 -616 1502 C-616.33 1499.36 -616.66 1496.72 -617 1494 C-618.32 1493.67 -619.64 1493.34 -621 1493 C-621 1490.36 -621 1487.72 -621 1485 C-622.32 1485 -623.64 1485 -625 1485 C-625 1483.35 -625 1481.7 -625 1480 C-626.65 1480 -628.3 1480 -630 1480 C-630 1477.03 -630 1474.06 -630 1471 C-631.32 1471 -632.64 1471 -634 1471 C-634 1469.68 -634 1468.36 -634 1467 C-634.639375 1466.855625 -635.27875 1466.71125 -635.9375 1466.5625 C-638 1466 -638 1466 -639 1465 C-639.04092937 1462.66702567 -639.04241723 1460.33294775 -639 1458 C-640.32 1458 -641.64 1458 -643 1458 C-643 1455.03 -643 1452.06 -643 1449 C-644.65 1448.67 -646.3 1448.34 -648 1448 C-648.33 1447.01 -648.66 1446.02 -649 1445 C-649.99 1444.67 -650.98 1444.34 -652 1444 C-652 1441.36 -652 1438.72 -652 1436 C-653.32 1436 -654.64 1436 -656 1436 C-656 1433.03 -656 1430.06 -656 1427 C-657.65 1427 -659.3 1427 -661 1427 C-661 1425.35 -661 1423.7 -661 1422 C-662.32 1422 -663.64 1422 -665 1422 C-665 1419.03 -665 1416.06 -665 1413 C-666.65 1413 -668.3 1413 -670 1413 C-670 1410.36 -670 1407.72 -670 1405 C-671.32 1405 -672.64 1405 -674 1405 C-674 1403.35 -674 1401.7 -674 1400 C-675.32 1400 -676.64 1400 -678 1400 C-679.4783226 1397.04335481 -679.06032783 1394.25770263 -679 1391 C-680.32 1391 -681.64 1391 -683 1391 C-683 1389.68 -683 1388.36 -683 1387 C-684.32 1386.67 -685.64 1386.34 -687 1386 C-687.33 1383.36 -687.66 1380.72 -688 1378 C-689.32 1377.67 -690.64 1377.34 -692 1377 C-692 1374.36 -692 1371.72 -692 1369 C-693.32 1369 -694.64 1369 -696 1369 C-696 1367.35 -696 1365.7 -696 1364 C-697.32 1364 -698.64 1364 -700 1364 C-701.35439668 1361.29120665 -701.06501451 1358.99066732 -701 1356 C-702.32 1355.67 -703.64 1355.34 -705 1355 C-705 1352.36 -705 1349.72 -705 1347 C-706.65 1346.67 -708.3 1346.34 -710 1346 C-710 1344.68 -710 1343.36 -710 1342 C-711.32 1342 -712.64 1342 -714 1342 C-714 1339.03 -714 1336.06 -714 1333 C-715.65 1332.67 -717.3 1332.34 -719 1332 C-719 1329.36 -719 1326.72 -719 1324 C-720.32 1324 -721.64 1324 -723 1324 C-723 1322.68 -723 1321.36 -723 1320 C-724.32 1320 -725.64 1320 -727 1320 C-727 1317.03 -727 1314.06 -727 1311 C-728.65 1311 -730.3 1311 -732 1311 C-732 1309.35 -732 1307.7 -732 1306 C-733.32 1306 -734.64 1306 -736 1306 C-736 1303.36 -736 1300.72 -736 1298 C-737.65 1297.67 -739.3 1297.34 -741 1297 C-741 1294.36 -741 1291.72 -741 1289 C-742.32 1289 -743.64 1289 -745 1289 C-745 1287.35 -745 1285.7 -745 1284 C-746.32 1284 -747.64 1284 -749 1284 C-750.4783226 1281.04335481 -750.06032783 1278.25770263 -750 1275 C-751.32 1275 -752.64 1275 -754 1275 C-754 1272.36 -754 1269.72 -754 1267 C-755.32 1266.67 -756.64 1266.34 -758 1266 C-758 1264.68 -758 1263.36 -758 1262 C-759.65 1261.67 -761.3 1261.34 -763 1261 C-763 1258.36 -763 1255.72 -763 1253 C-764.32 1253 -765.64 1253 -767 1253 C-767 1251.68 -767 1250.36 -767 1249 C-768.65 1248.34 -770.3 1247.68 -772 1247 C-772 1244.69 -772 1242.38 -772 1240 C-773.32 1239.67 -774.64 1239.34 -776 1239 C-776 1236.36 -776 1233.72 -776 1231 C-777.65 1230.67 -779.3 1230.34 -781 1230 C-781 1228.68 -781 1227.36 -781 1226 C-782.32 1225.67 -783.64 1225.34 -785 1225 C-785 1222.36 -785 1219.72 -785 1217 C-786.32 1217 -787.64 1217 -789 1217 C-789.33 1214.36 -789.66 1211.72 -790 1209 C-791.32 1208.67 -792.64 1208.34 -794 1208 C-794 1206.68 -794 1205.36 -794 1204 C-795.32 1203.67 -796.64 1203.34 -798 1203 C-798 1200.36 -798 1197.72 -798 1195 C-799.65 1195 -801.3 1195 -803 1195 C-803 1192.03 -803 1189.06 -803 1186 C-804.32 1186 -805.64 1186 -807 1186 C-807 1184.68 -807 1183.36 -807 1182 C-808.65 1181.67 -810.3 1181.34 -812 1181 C-812 1178.36 -812 1175.72 -812 1173 C-813.32 1173 -814.64 1173 -816 1173 C-816 1171.35 -816 1169.7 -816 1168 C-817.32 1168 -818.64 1168 -820 1168 C-820.33 1165.36 -820.66 1162.72 -821 1160 C-822.32 1159.67 -823.64 1159.34 -825 1159 C-825 1156.36 -825 1153.72 -825 1151 C-826.32 1151 -827.64 1151 -829 1151 C-829 1149.35 -829 1147.7 -829 1146 C-830.32 1146 -831.64 1146 -833 1146 C-834.4783226 1143.04335481 -834.06032783 1140.25770263 -834 1137 C-835.32 1137 -836.64 1137 -838 1137 C-838 1134.03 -838 1131.06 -838 1128 C-839.65 1128 -841.3 1128 -843 1128 C-843 1126.68 -843 1125.36 -843 1124 C-844.32 1123.67 -845.64 1123.34 -847 1123 C-847 1120.36 -847 1117.72 -847 1115 C-848.65 1114.67 -850.3 1114.34 -852 1114 C-852 1111.36 -852 1108.72 -852 1106 C-853.32 1106 -854.64 1106 -856 1106 C-856 1104.68 -856 1103.36 -856 1102 C-857.32 1101.67 -858.64 1101.34 -860 1101 C-860 1098.36 -860 1095.72 -860 1093 C-861.65 1093 -863.3 1093 -865 1093 C-865 1091.35 -865 1089.7 -865 1088 C-866.32 1088 -867.64 1088 -869 1088 C-869 1085.03 -869 1082.06 -869 1079 C-870.65 1079 -872.3 1079 -874 1079 C-874 1076.36 -874 1073.72 -874 1071 C-875.32 1070.67 -876.64 1070.34 -878 1070 C-878 1068.68 -878 1067.36 -878 1066 C-879.32 1066 -880.64 1066 -882 1066 C-883.4783226 1063.04335481 -883.06032783 1060.25770263 -883 1057 C-884.32 1057 -885.64 1057 -887 1057 C-887 1054.03 -887 1051.06 -887 1048 C-888.32 1048 -889.64 1048 -891 1048 C-891.33 1046.68 -891.66 1045.36 -892 1044 C-893.32 1043.67 -894.64 1043.34 -896 1043 C-896 1040.36 -896 1037.72 -896 1035 C-897.32 1035 -898.64 1035 -900 1035 C-900 1032.03 -900 1029.06 -900 1026 C-901.65 1026 -903.3 1026 -905 1026 C-905.103125 1025.360625 -905.20625 1024.72125 -905.3125 1024.0625 C-905.539375 1023.381875 -905.76625 1022.70125 -906 1022 C-906.99 1021.67 -907.98 1021.34 -909 1021 C-909 1018.36 -909 1015.72 -909 1013 C-910.65 1012.67 -912.3 1012.34 -914 1012 C-914 1010.68 -914 1009.36 -914 1008 C-915.32 1007.67 -916.64 1007.34 -918 1007 C-918 1004.36 -918 1001.72 -918 999 C-919.32 999 -920.64 999 -922 999 C-923.4783226 996.04335481 -923.06032783 993.25770263 -923 990 C-924.32 990 -925.64 990 -927 990 C-927 988.68 -927 987.36 -927 986 C-928.32 985.67 -929.64 985.34 -931 985 C-931 982.36 -931 979.72 -931 977 C-932.65 977 -934.3 977 -936 977 C-936 974.03 -936 971.06 -936 968 C-937.32 968 -938.64 968 -940 968 C-940 966.68 -940 965.36 -940 964 C-941.65 963.67 -943.3 963.34 -945 963 C-945 960.36 -945 957.72 -945 955 C-946.32 955 -947.64 955 -949 955 C-949 952.03 -949 949.06 -949 946 C-950.65 945.67 -952.3 945.34 -954 945 C-954 943.68 -954 942.36 -954 941 C-955.32 941 -956.64 941 -958 941 C-958.33 938.36 -958.66 935.72 -959 933 C-959.99 932.67 -960.98 932.34 -962 932 C-962 930.68 -962 929.36 -962 928 C-963.65 927.67 -965.3 927.34 -967 927 C-967 924.36 -967 921.72 -967 919 C-968.32 919 -969.64 919 -971 919 C-971 916.03 -971 913.06 -971 910 C-972.65 910 -974.3 910 -976 910 C-976 908.68 -976 907.36 -976 906 C-977.32 905.67 -978.64 905.34 -980 905 C-980 902.36 -980 899.72 -980 897 C-981.65 896.67 -983.3 896.34 -985 896 C-985 893.36 -985 890.72 -985 888 C-986.32 888 -987.64 888 -989 888 C-989 886.35 -989 884.7 -989 883 C-990.32 883 -991.64 883 -993 883 C-993.33 880.36 -993.66 877.72 -994 875 C-995.32 874.67 -996.64 874.34 -998 874 C-998 871.36 -998 868.72 -998 866 C-999.32 866 -1000.64 866 -1002 866 C-1002 864.35 -1002 862.7 -1002 861 C-1003.65 861 -1005.3 861 -1007 861 C-1007 858.03 -1007 855.06 -1007 852 C-1008.32 852 -1009.64 852 -1011 852 C-1011 850.68 -1011 849.36 -1011 848 C-1011.639375 847.855625 -1012.27875 847.71125 -1012.9375 847.5625 C-1015 847 -1015 847 -1016 846 C-1016.04092937 843.66702567 -1016.04241723 841.33294775 -1016 839 C-1017.32 839 -1018.64 839 -1020 839 C-1020 836.03 -1020 833.06 -1020 830 C-1021.65 829.67 -1023.3 829.34 -1025 829 C-1025.33 828.01 -1025.66 827.02 -1026 826 C-1026.99 825.67 -1027.98 825.34 -1029 825 C-1029 822.36 -1029 819.72 -1029 817 C-1030.32 817 -1031.64 817 -1033 817 C-1033 814.03 -1033 811.06 -1033 808 C-1034.65 808 -1036.3 808 -1038 808 C-1038 806.35 -1038 804.7 -1038 803 C-1039.32 803 -1040.64 803 -1042 803 C-1042 800.03 -1042 797.06 -1042 794 C-1043.65 794 -1045.3 794 -1047 794 C-1047 791.36 -1047 788.72 -1047 786 C-1048.32 785.67 -1049.64 785.34 -1051 785 C-1051 783.68 -1051 782.36 -1051 781 C-1052.32 781 -1053.64 781 -1055 781 C-1056.4783226 778.04335481 -1056.06032783 775.25770263 -1056 772 C-1057.32 772 -1058.64 772 -1060 772 C-1060 770.68 -1060 769.36 -1060 768 C-1061.32 767.67 -1062.64 767.34 -1064 767 C-1064 764.36 -1064 761.72 -1064 759 C-1065.65 758.67 -1067.3 758.34 -1069 758 C-1069 755.36 -1069 752.72 -1069 750 C-1070.32 750 -1071.64 750 -1073 750 C-1073 748.35 -1073 746.7 -1073 745 C-1074.32 745 -1075.64 745 -1077 745 C-1078.35439668 742.29120665 -1078.06501451 739.99066732 -1078 737 C-1079.32 736.67 -1080.64 736.34 -1082 736 C-1082 733.36 -1082 730.72 -1082 728 C-1083.65 727.67 -1085.3 727.34 -1087 727 C-1087 725.68 -1087 724.36 -1087 723 C-1088.32 722.67 -1089.64 722.34 -1091 722 C-1091 719.36 -1091 716.72 -1091 714 C-1092.32 714 -1093.64 714 -1095 714 C-1096.4783226 711.04335481 -1096.06032783 708.25770263 -1096 705 C-1097.32 705 -1098.64 705 -1100 705 C-1100 703.68 -1100 702.36 -1100 701 C-1101.32 701 -1102.64 701 -1104 701 C-1104 698.03 -1104 695.06 -1104 692 C-1105.65 692 -1107.3 692 -1109 692 C-1109 690.35 -1109 688.7 -1109 687 C-1110.32 687 -1111.64 687 -1113 687 C-1113 684.36 -1113 681.72 -1113 679 C-1114.65 678.67 -1116.3 678.34 -1118 678 C-1118 675.36 -1118 672.72 -1118 670 C-1119.32 670 -1120.64 670 -1122 670 C-1122 668.35 -1122 666.7 -1122 665 C-1123.32 665 -1124.64 665 -1126 665 C-1126.495 660.545 -1126.495 660.545 -1127 656 C-1128.32 656 -1129.64 656 -1131 656 C-1131 653.36 -1131 650.72 -1131 648 C-1132.32 647.67 -1133.64 647.34 -1135 647 C-1135 645.68 -1135 644.36 -1135 643 C-1136.32 643 -1137.64 643 -1139 643 C-1140.4783226 640.04335481 -1140.06032783 637.25770263 -1140 634 C-1141.32 634 -1142.64 634 -1144 634 C-1144 631.03 -1144 628.06 -1144 625 C-1145.65 625 -1147.3 625 -1149 625 C-1149 623.68 -1149 622.36 -1149 621 C-1150.32 620.67 -1151.64 620.34 -1153 620 C-1153 617.36 -1153 614.72 -1153 612 C-1154.65 611.67 -1156.3 611.34 -1158 611 C-1158 609.68 -1158 608.36 -1158 607 C-1159.32 606.67 -1160.64 606.34 -1162 606 C-1162 603.36 -1162 600.72 -1162 598 C-1163.32 598 -1164.64 598 -1166 598 C-1166 595.36 -1166 592.72 -1166 590 C-1166.99 590 -1167.98 590 -1169 590 C-1169 581.09 -1169 572.18 -1169 563 C-1168.01 563 -1167.02 563 -1166 563 C-1166 561.68 -1166 560.36 -1166 559 C-1164.68 558.67 -1163.36 558.34 -1162 558 C-1162 556.68 -1162 555.36 -1162 554 C-1159.03 554 -1156.06 554 -1153 554 C-1153 552.68 -1153 551.36 -1153 550 C-1150.03 550 -1147.06 550 -1144 550 C-1144 548.35 -1144 546.7 -1144 545 C-1141.03 545 -1138.06 545 -1135 545 C-1135 543.68 -1135 542.36 -1135 541 C-1132.36 541 -1129.72 541 -1127 541 C-1126.505 538.525 -1126.505 538.525 -1126 536 C-1123.36 536 -1120.72 536 -1118 536 C-1117.67 534.68 -1117.34 533.36 -1117 532 C-1114.36 532 -1111.72 532 -1109 532 C-1109 530.68 -1109 529.36 -1109 528 C-1106.04335481 526.5216774 -1103.25770263 526.93967217 -1100 527 C-1099.67 525.68 -1099.34 524.36 -1099 523 C-1096.36 523 -1093.72 523 -1091 523 C-1091 521.68 -1091 520.36 -1091 519 C-1088.03 518.67 -1085.06 518.34 -1082 518 C-1081.67 516.68 -1081.34 515.36 -1081 514 C-1078.36 514 -1075.72 514 -1073 514 C-1073 512.68 -1073 511.36 -1073 510 C-1070.03 509.67 -1067.06 509.34 -1064 509 C-1063.67 507.68 -1063.34 506.36 -1063 505 C-1060.69 505 -1058.38 505 -1056 505 C-1055.67 503.68 -1055.34 502.36 -1055 501 C-1050.71 501 -1046.42 501 -1042 501 C-1042 499.35 -1042 497.7 -1042 496 C-1039.03 496 -1036.06 496 -1033 496 C-1033 494.68 -1033 493.36 -1033 492 C-1030.36 492 -1027.72 492 -1025 492 C-1024.67 490.35 -1024.34 488.7 -1024 487 C-1021.36 487 -1018.72 487 -1016 487 C-1016 485.68 -1016 484.36 -1016 483 C-1013.03 483 -1010.06 483 -1007 483 C-1006.67 481.35 -1006.34 479.7 -1006 478 C-1003.36 478 -1000.72 478 -998 478 C-998 476.68 -998 475.36 -998 474 C-995.03 474 -992.06 474 -989 474 C-988.67 472.35 -988.34 470.7 -988 469 C-985.36 469 -982.72 469 -980 469 C-980 467.68 -980 466.36 -980 465 C-977.03 465 -974.06 465 -971 465 C-971 463.68 -971 462.36 -971 461 C-968.03 461 -965.06 461 -962 461 C-962 459.35 -962 457.7 -962 456 C-959.36 456 -956.72 456 -954 456 C-953.67 454.68 -953.34 453.36 -953 452 C-950.36 452 -947.72 452 -945 452 C-944.67 450.35 -944.34 448.7 -944 447 C-941.36 447 -938.72 447 -936 447 C-936 445.68 -936 444.36 -936 443 C-933.03 443 -930.06 443 -927 443 C-927 441.35 -927 439.7 -927 438 C-924.03 438 -921.06 438 -918 438 C-918 436.68 -918 435.36 -918 434 C-915.03 434 -912.06 434 -909 434 C-908.67 432.35 -908.34 430.7 -908 429 C-905.36 429 -902.72 429 -900 429 C-900 427.68 -900 426.36 -900 425 C-897.03 425 -894.06 425 -891 425 C-891 423.68 -891 422.36 -891 421 C-888.29120665 419.64560332 -885.99066732 419.93498549 -883 420 C-882.67 418.68 -882.34 417.36 -882 416 C-879.36 416 -876.72 416 -874 416 C-873.67 414.68 -873.34 413.36 -873 412 C-870.36 412 -867.72 412 -865 412 C-864.67 410.35 -864.34 408.7 -864 407 C-861.36 407 -858.72 407 -856 407 C-855.67 405.68 -855.34 404.36 -855 403 C-851.04 403 -847.08 403 -843 403 C-842.67 401.35 -842.34 399.7 -842 398 C-839.36 398 -836.72 398 -834 398 C-834 396.68 -834 395.36 -834 394 C-831.03 394 -828.06 394 -825 394 C-824.67 392.35 -824.34 390.7 -824 389 C-821.36 389 -818.72 389 -816 389 C-816 387.68 -816 386.36 -816 385 C-813.03 385 -810.06 385 -807 385 C-806.67 383.35 -806.34 381.7 -806 380 C-803.36 380 -800.72 380 -798 380 C-798 378.68 -798 377.36 -798 376 C-795.03 376 -792.06 376 -789 376 C-789 374.68 -789 373.36 -789 372 C-786.00519083 371.1276588 -783.36424089 370.89170234 -780.25 370.9375 C-779.05117188 370.95103516 -779.05117188 370.95103516 -777.828125 370.96484375 C-776.92320312 370.98224609 -776.92320312 370.98224609 -776 371 C-776 369.68 -776 368.36 -776 367 C-773.03 367 -770.06 367 -767 367 C-767 365.68 -767 364.36 -767 363 C-764.03 363 -761.06 363 -758 363 C-758 361.35 -758 359.7 -758 358 C-755.36 358 -752.72 358 -750 358 C-749.67 356.68 -749.34 355.36 -749 354 C-746.36 354 -743.72 354 -741 354 C-740.855625 353.360625 -740.71125 352.72125 -740.5625 352.0625 C-740 350 -740 350 -739 349 C-736.98035801 348.92755947 -734.95832876 348.91622812 -732.9375 348.9375 C-731.83277344 348.94652344 -730.72804688 348.95554687 -729.58984375 348.96484375 C-728.30787109 348.98224609 -728.30787109 348.98224609 -727 349 C-727 347.68 -727 346.36 -727 345 C-724.36 345 -721.72 345 -719 345 C-718.67 343.35 -718.34 341.7 -718 340 C-715.36 340 -712.72 340 -710 340 C-709.67 338.68 -709.34 337.36 -709 336 C-706.36 336 -703.72 336 -701 336 C-701 334.68 -701 333.36 -701 332 C-698.04335481 330.5216774 -695.25770263 330.93967217 -692 331 C-692 329.68 -692 328.36 -692 327 C-689.03 327 -686.06 327 -683 327 C-682.67 325.68 -682.34 324.36 -682 323 C-678.0186217 321.6728739 -674.14954773 321.93084087 -670 322 C-670 320.68 -670 319.36 -670 318 C-667.03 318 -664.06 318 -661 318 C-661 316.68 -661 315.36 -661 314 C-658.03 314 -655.06 314 -652 314 C-652 312.35 -652 310.7 -652 309 C-649.03 309 -646.06 309 -643 309 C-643 307.68 -643 306.36 -643 305 C-640.03 305 -637.06 305 -634 305 C-633.67 303.35 -633.34 301.7 -633 300 C-630.36 300 -627.72 300 -625 300 C-625 298.68 -625 297.36 -625 296 C-622.03 296 -619.06 296 -616 296 C-616 294.68 -616 293.36 -616 292 C-613.29120665 290.64560332 -610.99066732 290.93498549 -608 291 C-607.67 289.68 -607.34 288.36 -607 287 C-602.71 287 -598.42 287 -594 287 C-594 285.35 -594 283.7 -594 282 C-591.36 282 -588.72 282 -586 282 C-585.67 280.68 -585.34 279.36 -585 278 C-582.36 278 -579.72 278 -577 278 C-577 276.68 -577 275.36 -577 274 C-574.03 273.67 -571.06 273.34 -568 273 C-568 271.68 -568 270.36 -568 269 C-565.03 269 -562.06 269 -559 269 C-559 267.68 -559 266.36 -559 265 C-556.03 265 -553.06 265 -550 265 C-549.67 263.35 -549.34 261.7 -549 260 C-546.36 260 -543.72 260 -541 260 C-541 258.68 -541 257.36 -541 256 C-538.03 256 -535.06 256 -532 256 C-532 254.68 -532 253.36 -532 252 C-529.04335481 250.5216774 -526.25770263 250.93967217 -523 251 C-523 249.68 -523 248.36 -523 247 C-518.71 247 -514.42 247 -510 247 C-510 245.35 -510 243.7 -510 242 C-507.03 242 -504.06 242 -501 242 C-501 240.68 -501 239.36 -501 238 C-498.03 238 -495.06 238 -492 238 C-492 236.35 -492 234.7 -492 233 C-489.36 233 -486.72 233 -484 233 C-483.67 231.68 -483.34 230.36 -483 229 C-480.36 229 -477.72 229 -475 229 C-475 227.68 -475 226.36 -475 225 C-472.03 224.67 -469.06 224.34 -466 224 C-465.67 222.68 -465.34 221.36 -465 220 C-462.36 220 -459.72 220 -457 220 C-457 218.68 -457 217.36 -457 216 C-454.03 216 -451.06 216 -448 216 C-447.67 214.35 -447.34 212.7 -447 211 C-444.36 211 -441.72 211 -439 211 C-439 209.68 -439 208.36 -439 207 C-436.03 207 -433.06 207 -430 207 C-430 205.68 -430 204.36 -430 203 C-427.35541621 201.67770811 -425.32238699 201.90322806 -422.375 201.9375 C-420.87066406 201.95103516 -420.87066406 201.95103516 -419.3359375 201.96484375 C-418.17964844 201.98224609 -418.17964844 201.98224609 -417 202 C-417 200.68 -417 199.36 -417 198 C-414.03 198 -411.06 198 -408 198 C-408 196.35 -408 194.7 -408 193 C-405.03 193 -402.06 193 -399 193 C-399 191.68 -399 190.36 -399 189 C-396.03 189 -393.06 189 -390 189 C-389.67 187.35 -389.34 185.7 -389 184 C-386.69 184 -384.38 184 -382 184 C-381.67 182.68 -381.34 181.36 -381 180 C-378.36 180 -375.72 180 -373 180 C-372.67 178.68 -372.34 177.36 -372 176 C-369.36 175.67 -366.72 175.34 -364 175 C-363.67 173.68 -363.34 172.36 -363 171 C-360.36 171 -357.72 171 -355 171 C-355 169.68 -355 168.36 -355 167 C-352.03 167 -349.06 167 -346 167 C-345.67 165.35 -345.34 163.7 -345 162 C-342.36 162 -339.72 162 -337 162 C-337 160.68 -337 159.36 -337 158 C-332.71 158 -328.42 158 -324 158 C-324 156.35 -324 154.7 -324 153 C-321.03 153 -318.06 153 -315 153 C-315 151.68 -315 150.36 -315 149 C-312.03 149 -309.06 149 -306 149 C-305.67 147.35 -305.34 145.7 -305 144 C-302.36 144 -299.72 144 -297 144 C-297 142.68 -297 141.36 -297 140 C-294.03 140 -291.06 140 -288 140 C-288 138.68 -288 137.36 -288 136 C-285.36 135.67 -282.72 135.34 -280 135 C-279.67 133.68 -279.34 132.36 -279 131 C-276.36 131 -273.72 131 -271 131 C-270.67 129.68 -270.34 128.36 -270 127 C-267.36 127 -264.72 127 -262 127 C-261.67 125.35 -261.34 123.7 -261 122 C-257.04 122 -253.08 122 -249 122 C-248.67 120.68 -248.34 119.36 -248 118 C-245.36 118 -242.72 118 -240 118 C-239.67 116.35 -239.34 114.7 -239 113 C-236.36 113 -233.72 113 -231 113 C-231 111.68 -231 110.36 -231 109 C-228.03 109 -225.06 109 -222 109 C-221.67 107.35 -221.34 105.7 -221 104 C-218.36 104 -215.72 104 -213 104 C-213 102.68 -213 101.36 -213 100 C-210.03 100 -207.06 100 -204 100 C-204 98.68 -204 97.36 -204 96 C-201.04335481 94.5216774 -198.25770263 94.93967217 -195 95 C-195 93.68 -195 92.36 -195 91 C-192.03 91 -189.06 91 -186 91 C-186 89.68 -186 88.36 -186 87 C-181.545 86.505 -181.545 86.505 -177 86 C-176.67 84.68 -176.34 83.36 -176 82 C-172.04 82 -168.08 82 -164 82 C-164 80.68 -164 79.36 -164 78 C-161.03 78 -158.06 78 -155 78 C-155 76.35 -155 74.7 -155 73 C-152.36 73 -149.72 73 -147 73 C-146.67 71.68 -146.34 70.36 -146 69 C-143.36 69 -140.72 69 -138 69 C-137.67 67.35 -137.34 65.7 -137 64 C-134.36 64 -131.72 64 -129 64 C-129 62.68 -129 61.36 -129 60 C-126.03 60 -123.06 60 -120 60 C-119.67 58.35 -119.34 56.7 -119 55 C-116.36 55 -113.72 55 -111 55 C-111 53.68 -111 52.36 -111 51 C-108.03 51 -105.06 51 -102 51 C-102 49.68 -102 48.36 -102 47 C-99.04335481 45.5216774 -96.25770263 45.93967217 -93 46 C-92.67 44.68 -92.34 43.36 -92 42 C-89.36 42 -86.72 42 -84 42 C-84 40.68 -84 39.36 -84 38 C-79.545 37.505 -79.545 37.505 -75 37 C-74.67 35.68 -74.34 34.36 -74 33 C-71.69 33 -69.38 33 -67 33 C-66.67 31.68 -66.34 30.36 -66 29 C-61.71 29 -57.42 29 -53 29 C-53 27.35 -53 25.7 -53 24 C-50.36 24 -47.72 24 -45 24 C-44.67 22.68 -44.34 21.36 -44 20 C-41.36 20 -38.72 20 -36 20 C-35.67 18.35 -35.34 16.7 -35 15 C-32.36 15 -29.72 15 -27 15 C-27 13.68 -27 12.36 -27 11 C-24.03 11 -21.06 11 -18 11 C-17.67 9.35 -17.34 7.7 -17 6 C-14.36 6 -11.72 6 -9 6 C-9 4.68 -9 3.36 -9 2 C-6.03 2 -3.06 2 0 2 C0 1.34 0 0.68 0 0 Z " fill="#FF0000" transform="translate(1396,125)"/>
<path d="M0 0 C7.26 0 14.52 0 22 0 C22 1.32 22 2.64 22 4 C23.32 4 24.64 4 26 4 C26 6.97 26 9.94 26 13 C27.65 13 29.3 13 31 13 C31 15.97 31 18.94 31 22 C32.32 22 33.64 22 35 22 C35 26.29 35 30.58 35 35 C37.475 35.495 37.475 35.495 40 36 C40 38.64 40 41.28 40 44 C41.32 44.33 42.64 44.66 44 45 C44 49.29 44 53.58 44 58 C45.32 58 46.64 58 48 58 C49.4783226 60.95664519 49.06032783 63.74229737 49 67 C50.32 67.33 51.64 67.66 53 68 C53 71.96 53 75.92 53 80 C54.32 80 55.64 80 57 80 C57 84.29 57 88.58 57 93 C58.65 93 60.3 93 62 93 C62 95.97 62 98.94 62 102 C63.32 102 64.64 102 66 102 C66 106.29 66 110.58 66 115 C68.475 115.495 68.475 115.495 71 116 C71.33 118.64 71.66 121.28 72 124 C72.99 124.33 73.98 124.66 75 125 C75 129.29 75 133.58 75 138 C76.65 138.33 78.3 138.66 80 139 C80 141.64 80 144.28 80 147 C81.32 147.33 82.64 147.66 84 148 C84 151.96 84 155.92 84 160 C85.32 160 86.64 160 88 160 C88 164.29 88 168.58 88 173 C89.65 173.33 91.3 173.66 93 174 C93 176.64 93 179.28 93 182 C94.32 182.33 95.64 182.66 97 183 C97 187.29 97 191.58 97 196 C98.65 196 100.3 196 102 196 C102 198.97 102 201.94 102 205 C103.32 205 104.64 205 106 205 C106 209.29 106 213.58 106 218 C107.65 218.33 109.3 218.66 111 219 C111 221.64 111 224.28 111 227 C112.32 227.33 113.64 227.66 115 228 C115 231.96 115 235.92 115 240 C116.32 240 117.64 240 119 240 C119.33 242.97 119.66 245.94 120 249 C121.32 249.33 122.64 249.66 124 250 C124.33 253.96 124.66 257.92 125 262 C125.99 262.33 126.98 262.66 128 263 C128 267.29 128 271.58 128 276 C129.65 276 131.3 276 133 276 C133 278.97 133 281.94 133 285 C134.32 285 135.64 285 137 285 C137 289.29 137 293.58 137 298 C138.65 298.33 140.3 298.66 142 299 C142 301.64 142 304.28 142 307 C143.32 307.33 144.64 307.66 146 308 C146 311.96 146 315.92 146 320 C147.32 320 148.64 320 150 320 C151.4783226 322.95664519 151.06032783 325.74229737 151 329 C152.32 329.33 153.64 329.66 155 330 C155 334.29 155 338.58 155 343 C156.32 343 157.64 343 159 343 C159 347.29 159 351.58 159 356 C160.65 356 162.3 356 164 356 C164 358.97 164 361.94 164 365 C165.32 365 166.64 365 168 365 C168 369.29 168 373.58 168 378 C169.65 378.33 171.3 378.66 173 379 C173 381.64 173 384.28 173 387 C174.32 387.33 175.64 387.66 177 388 C177 391.96 177 395.92 177 400 C178.65 400.66 180.3 401.32 182 402 C182.33 404.31 182.66 406.62 183 409 C183.99 409.33 184.98 409.66 186 410 C186 414.29 186 418.58 186 423 C187.32 423 188.64 423 190 423 C190 425.97 190 428.94 190 432 C191.65 432.33 193.3 432.66 195 433 C195 436.96 195 440.92 195 445 C196.32 445 197.64 445 199 445 C199 449.29 199 453.58 199 458 C200.65 458.33 202.3 458.66 204 459 C204 461.64 204 464.28 204 467 C205.32 467.33 206.64 467.66 208 468 C208 472.29 208 476.58 208 481 C209.65 481 211.3 481 213 481 C213 483.97 213 486.94 213 490 C214.32 490 215.64 490 217 490 C217 494.29 217 498.58 217 503 C218.32 503 219.64 503 221 503 C222.4783226 505.95664519 222.06032783 508.74229737 222 512 C223.32 512.33 224.64 512.66 226 513 C226 516.96 226 520.92 226 525 C227.32 525 228.64 525 230 525 C230 527.97 230 530.94 230 534 C231.32 534 232.64 534 234 534 C235.32229189 536.64458379 235.09677194 538.67761301 235.0625 541.625 C235.04896484 543.12933594 235.04896484 543.12933594 235.03515625 544.6640625 C235.01775391 545.82035156 235.01775391 545.82035156 235 547 C236.32 547.33 237.64 547.66 239 548 C239 550.64 239 553.28 239 556 C239.639375 556.12375 240.27875 556.2475 240.9375 556.375 C241.618125 556.58125 242.29875 556.7875 243 557 C244.32229189 559.64458379 244.09677194 561.67761301 244.0625 564.625 C244.04896484 566.12933594 244.04896484 566.12933594 244.03515625 567.6640625 C244.01775391 568.82035156 244.01775391 568.82035156 244 570 C245.32 570 246.64 570 248 570 C248 574.29 248 578.58 248 583 C249.65 583.33 251.3 583.66 253 584 C253 586.64 253 589.28 253 592 C254.32 592 255.64 592 257 592 C257 596.29 257 600.58 257 605 C258.32 605 259.64 605 261 605 C261 607.97 261 610.94 261 614 C262.65 614.33 264.3 614.66 266 615 C266 619.29 266 623.58 266 628 C267.32 628 268.64 628 270 628 C270 630.97 270 633.94 270 637 C271.65 637.33 273.3 637.66 275 638 C275 641.96 275 645.92 275 650 C276.32 650 277.64 650 279 650 C279 652.97 279 655.94 279 659 C280.32 659 281.64 659 283 659 C284.32229189 661.64458379 284.09677194 663.67761301 284.0625 666.625 C284.04896484 668.12933594 284.04896484 668.12933594 284.03515625 669.6640625 C284.02355469 670.43492187 284.01195312 671.20578125 284 672 C285.32 672 286.64 672 288 672 C288 674.97 288 677.94 288 681 C289.32 681 290.64 681 292 681 C292 685.29 292 689.58 292 694 C293.65 694.33 295.3 694.66 297 695 C297 697.64 297 700.28 297 703 C298.32 703.33 299.64 703.66 301 704 C301 708.29 301 712.58 301 717 C302.65 717 304.3 717 306 717 C306 719.97 306 722.94 306 726 C307.32 726 308.64 726 310 726 C310 730.29 310 734.58 310 739 C310.66 739 311.32 739 312 739 C312 747.91 312 756.82 312 766 C311.34 766 310.68 766 310 766 C310 768.64 310 771.28 310 774 C308.68 774 307.36 774 306 774 C305.67 775.65 305.34 777.3 305 779 C302.36 779 299.72 779 297 779 C297 780.32 297 781.64 297 783 C295.35 783 293.7 783 292 783 C292 784.65 292 786.3 292 788 C289.36 788 286.72 788 284 788 C284 789.32 284 790.64 284 792 C282.35 792 280.7 792 279 792 C278.67 793.65 278.34 795.3 278 797 C275.36 797 272.72 797 270 797 C270 798.32 270 799.64 270 801 C268.68 801 267.36 801 266 801 C265.67 802.32 265.34 803.64 265 805 C262.36 805.33 259.72 805.66 257 806 C257 807.32 257 808.64 257 810 C255.35 810 253.7 810 252 810 C252 811.32 252 812.64 252 814 C249.36 814.33 246.72 814.66 244 815 C243.67 816.32 243.34 817.64 243 819 C240.36 819 237.72 819 235 819 C235 820.32 235 821.64 235 823 C233.35 823 231.7 823 230 823 C230 824.65 230 826.3 230 828 C227.36 828 224.72 828 222 828 C221.67 829.32 221.34 830.64 221 832 C219.68 832 218.36 832 217 832 C217 833.32 217 834.64 217 836 C214.04335481 837.4783226 211.25770263 837.06032783 208 837 C208 838.32 208 839.64 208 841 C206.68 841 205.36 841 204 841 C203.87625 841.639375 203.7525 842.27875 203.625 842.9375 C203.41875 843.618125 203.2125 844.29875 203 845 C200.29120665 846.35439668 197.99066732 846.06501451 195 846 C195 847.32 195 848.64 195 850 C193.35 850 191.7 850 190 850 C190 851.32 190 852.64 190 854 C187.36 854.33 184.72 854.66 182 855 C181.67 856.32 181.34 857.64 181 859 C178.36 859 175.72 859 173 859 C172.67 860.65 172.34 862.3 172 864 C170.68 864 169.36 864 168 864 C168 865.32 168 866.64 168 868 C165.03 868 162.06 868 159 868 C159 869.32 159 870.64 159 872 C157.68 872 156.36 872 155 872 C154.67 873.65 154.34 875.3 154 877 C151.36 877 148.72 877 146 877 C146 878.32 146 879.64 146 881 C144.68 881 143.36 881 142 881 C141.855625 881.639375 141.71125 882.27875 141.5625 882.9375 C141 885 141 885 140 886 C137.66702567 886.04092937 135.33294775 886.04241723 133 886 C133 887.32 133 888.64 133 890 C131.35 890 129.7 890 128 890 C128 891.32 128 892.64 128 894 C125.29120665 895.35439668 122.99066732 895.06501451 120 895 C119.67 896.32 119.34 897.64 119 899 C116.36 899 113.72 899 111 899 C110.67 900.65 110.34 902.3 110 904 C108.68 904 107.36 904 106 904 C106 905.32 106 906.64 106 908 C103.03 908 100.06 908 97 908 C96.67 909.65 96.34 911.3 96 913 C95.01 913 94.02 913 93 913 C92.67 914.32 92.34 915.64 92 917 C89.36 917 86.72 917 84 917 C84 918.32 84 919.64 84 921 C82.68 921 81.36 921 80 921 C79.67 922.65 79.34 924.3 79 926 C76.36 926 73.72 926 71 926 C71 927.32 71 928.64 71 930 C69.35 930 67.7 930 66 930 C66 931.32 66 932.64 66 934 C63.04335481 935.4783226 60.25770263 935.06032783 57 935 C57 936.32 57 937.64 57 939 C55.68 939 54.36 939 53 939 C53 940.32 53 941.64 53 943 C50.03 943.33 47.06 943.66 44 944 C44 945.32 44 946.64 44 948 C42.68 948 41.36 948 40 948 C39.67 949.32 39.34 950.64 39 952 C36.36 952.33 33.72 952.66 31 953 C31 954.32 31 955.64 31 957 C28.03 957 25.06 957 22 957 C22 958.32 22 959.64 22 961 C20.35 961.33 18.7 961.66 17 962 C17 963.32 17 964.64 17 966 C14.36 966 11.72 966 9 966 C9 967.32 9 968.64 9 970 C7.35 970 5.7 970 4 970 C4 971.65 4 973.3 4 975 C1.03 975 -1.94 975 -5 975 C-5 976.32 -5 977.64 -5 979 C-6.32 979 -7.64 979 -9 979 C-9.33 980.65 -9.66 982.3 -10 984 C-12.64 984 -15.28 984 -18 984 C-18 985.32 -18 986.64 -18 988 C-19.32 988 -20.64 988 -22 988 C-22.12375 988.639375 -22.2475 989.27875 -22.375 989.9375 C-22.58125 990.618125 -22.7875 991.29875 -23 992 C-25.70879335 993.35439668 -28.00933268 993.06501451 -31 993 C-31 994.32 -31 995.64 -31 997 C-32.65 997 -34.3 997 -36 997 C-36 998.32 -36 999.64 -36 1001 C-38.97 1001.33 -41.94 1001.66 -45 1002 C-45 1003.32 -45 1004.64 -45 1006 C-46.32 1006 -47.64 1006 -49 1006 C-49.33 1007.32 -49.66 1008.64 -50 1010 C-52.64 1010.33 -55.28 1010.66 -58 1011 C-58 1012.32 -58 1013.64 -58 1015 C-59.32 1015 -60.64 1015 -62 1015 C-62.33 1016.32 -62.66 1017.64 -63 1019 C-65.64 1019 -68.28 1019 -71 1019 C-71.33 1020.65 -71.66 1022.3 -72 1024 C-74.64 1024 -77.28 1024 -80 1024 C-80 1025.32 -80 1026.64 -80 1028 C-81.32 1028 -82.64 1028 -84 1028 C-84.33 1029.65 -84.66 1031.3 -85 1033 C-87.64 1033 -90.28 1033 -93 1033 C-93 1034.32 -93 1035.64 -93 1037 C-94.65 1037 -96.3 1037 -98 1037 C-98.33 1038.65 -98.66 1040.3 -99 1042 C-101.64 1042 -104.28 1042 -107 1042 C-107 1043.32 -107 1044.64 -107 1046 C-108.32 1046 -109.64 1046 -111 1046 C-111 1047.32 -111 1048.64 -111 1050 C-113.97 1050.33 -116.94 1050.66 -120 1051 C-120 1052.32 -120 1053.64 -120 1055 C-122.97 1055 -125.94 1055 -129 1055 C-129 1056.32 -129 1057.64 -129 1059 C-133.29 1059.33 -137.58 1059.66 -142 1060 C-142.33 1061.32 -142.66 1062.64 -143 1064 C-151.58 1064 -160.16 1064 -169 1064 C-169 1065.32 -169 1066.64 -169 1068 C-179.23 1068 -189.46 1068 -200 1068 C-200.33 1069.65 -200.66 1071.3 -201 1073 C-210.9 1073 -220.8 1073 -231 1073 C-231 1074.32 -231 1075.64 -231 1077 C-241.23 1077 -251.46 1077 -262 1077 C-262.33 1078.65 -262.66 1080.3 -263 1082 C-272.9 1082 -282.8 1082 -293 1082 C-293 1083.32 -293 1084.64 -293 1086 C-303.23 1086 -313.46 1086 -324 1086 C-324 1087.32 -324 1088.64 -324 1090 C-326.87018441 1091.43509221 -329.33543723 1091.11158506 -332.5390625 1091.09765625 C-334.49199219 1091.09282227 -334.49199219 1091.09282227 -336.484375 1091.08789062 C-337.86458399 1091.07953466 -339.24479232 1091.07106971 -340.625 1091.0625 C-342.01301926 1091.05748501 -343.40104022 1091.0529221 -344.7890625 1091.04882812 C-348.19275132 1091.03700976 -351.59635439 1091.02053434 -355 1091 C-355 1092.32 -355 1093.64 -355 1095 C-365.23 1095 -375.46 1095 -386 1095 C-386 1096.32 -386 1097.64 -386 1099 C-389.79074537 1099.88563089 -393.28695898 1100.11681301 -397.17578125 1100.09765625 C-398.91118164 1100.09282227 -398.91118164 1100.09282227 -400.68164062 1100.08789062 C-401.87982422 1100.07951172 -403.07800781 1100.07113281 -404.3125 1100.0625 C-405.53001953 1100.05798828 -406.74753906 1100.05347656 -408.00195312 1100.04882812 C-411.00135226 1100.03706578 -414.00065089 1100.02062826 -417 1100 C-417.33 1101.32 -417.66 1102.64 -418 1104 C-429.55 1104 -441.1 1104 -453 1104 C-453 1105.32 -453 1106.64 -453 1108 C-463.23 1108 -473.46 1108 -484 1108 C-484 1109.65 -484 1111.3 -484 1113 C-494.23 1113 -504.46 1113 -515 1113 C-515 1114.32 -515 1115.64 -515 1117 C-525.23 1117 -535.46 1117 -546 1117 C-546 1118.65 -546 1120.3 -546 1122 C-556.23 1122 -566.46 1122 -577 1122 C-577 1123.32 -577 1124.64 -577 1126 C-587.23 1126 -597.46 1126 -608 1126 C-608 1127.32 -608 1128.64 -608 1130 C-610.87018441 1131.43509221 -613.33543723 1131.11158506 -616.5390625 1131.09765625 C-618.49199219 1131.09282227 -618.49199219 1131.09282227 -620.484375 1131.08789062 C-621.86458399 1131.07953466 -623.24479232 1131.07106971 -624.625 1131.0625 C-626.01301926 1131.05748501 -627.40104022 1131.0529221 -628.7890625 1131.04882812 C-632.19275132 1131.03700976 -635.59635439 1131.02053434 -639 1131 C-639.33 1132.32 -639.66 1133.64 -640 1135 C-651.22 1135 -662.44 1135 -674 1135 C-674.33 1136.65 -674.66 1138.3 -675 1140 C-684.9 1140 -694.8 1140 -705 1140 C-705 1140.66 -705 1141.32 -705 1142 C-713.91 1142 -722.82 1142 -732 1142 C-732 1141.34 -732 1140.68 -732 1140 C-734.64 1140 -737.28 1140 -740 1140 C-740.33 1138.35 -740.66 1136.7 -741 1135 C-742.32 1135 -743.64 1135 -745 1135 C-745 1133.68 -745 1132.36 -745 1131 C-746.32 1131 -747.64 1131 -749 1131 C-750.38226016 1128.23547967 -750.09525387 1125.9538637 -750.0625 1122.875 C-750.05347656 1121.77929688 -750.04445313 1120.68359375 -750.03515625 1119.5546875 C-750.02355469 1118.71164062 -750.01195312 1117.86859375 -750 1117 C-751.32 1117 -752.64 1117 -754 1117 C-754 1112.71 -754 1108.42 -754 1104 C-755.32 1104 -756.64 1104 -758 1104 C-758 1095.42 -758 1086.84 -758 1078 C-755.36 1077.67 -752.72 1077.34 -750 1077 C-750 1075.68 -750 1074.36 -750 1073 C-748.35 1073 -746.7 1073 -745 1073 C-745 1071.68 -745 1070.36 -745 1069 C-742.03 1068.67 -739.06 1068.34 -736 1068 C-736 1066.68 -736 1065.36 -736 1064 C-733.03 1064 -730.06 1064 -727 1064 C-727 1062.68 -727 1061.36 -727 1060 C-725.68 1060 -724.36 1060 -723 1060 C-722.67 1058.35 -722.34 1056.7 -722 1055 C-719.36 1055 -716.72 1055 -714 1055 C-714 1053.68 -714 1052.36 -714 1051 C-711.03 1051 -708.06 1051 -705 1051 C-705 1049.35 -705 1047.7 -705 1046 C-703.68 1046 -702.36 1046 -701 1046 C-701 1044.68 -701 1043.36 -701 1042 C-698.03 1042 -695.06 1042 -692 1042 C-691.67 1040.35 -691.34 1038.7 -691 1037 C-689.68 1037 -688.36 1037 -687 1037 C-687 1035.68 -687 1034.36 -687 1033 C-684.36 1033 -681.72 1033 -679 1033 C-678.34 1031.35 -677.68 1029.7 -677 1028 C-674.69 1028 -672.38 1028 -670 1028 C-670 1026.68 -670 1025.36 -670 1024 C-668.35 1024 -666.7 1024 -665 1024 C-665 1022.68 -665 1021.36 -665 1020 C-662.03 1019.67 -659.06 1019.34 -656 1019 C-656 1017.68 -656 1016.36 -656 1015 C-653.36 1015 -650.72 1015 -648 1015 C-648 1013.68 -648 1012.36 -648 1011 C-646.35 1011 -644.7 1011 -643 1011 C-642.505 1008.525 -642.505 1008.525 -642 1006 C-639.36 1006 -636.72 1006 -634 1006 C-634 1004.68 -634 1003.36 -634 1002 C-631.03 1002 -628.06 1002 -625 1002 C-625 1000.35 -625 998.7 -625 997 C-623.68 997 -622.36 997 -621 997 C-620.67 995.68 -620.34 994.36 -620 993 C-617.36 993 -614.72 993 -612 993 C-612 991.35 -612 989.7 -612 988 C-609.03 988 -606.06 988 -603 988 C-603 986.68 -603 985.36 -603 984 C-601.68 984 -600.36 984 -599 984 C-598.67 982.68 -598.34 981.36 -598 980 C-595.36 979.67 -592.72 979.34 -590 979 C-590 977.68 -590 976.36 -590 975 C-587.03 975 -584.06 975 -581 975 C-581 973.68 -581 972.36 -581 971 C-579.68 970.67 -578.36 970.34 -577 970 C-576.67 968.68 -576.34 967.36 -576 966 C-573.36 966 -570.72 966 -568 966 C-568 964.68 -568 963.36 -568 962 C-565.03 962 -562.06 962 -559 962 C-559 960.35 -559 958.7 -559 957 C-557.35 957 -555.7 957 -554 957 C-554 955.68 -554 954.36 -554 953 C-551.36 953 -548.72 953 -546 953 C-545.67 951.35 -545.34 949.7 -545 948 C-543.68 948 -542.36 948 -541 948 C-541 946.68 -541 945.36 -541 944 C-538.03 944 -535.06 944 -532 944 C-531.67 942.35 -531.34 940.7 -531 939 C-528.36 939 -525.72 939 -523 939 C-523 937.68 -523 936.36 -523 935 C-521.68 935 -520.36 935 -519 935 C-519 933.68 -519 932.36 -519 931 C-516.03 930.67 -513.06 930.34 -510 930 C-510 928.68 -510 927.36 -510 926 C-507.03 926 -504.06 926 -501 926 C-501 924.68 -501 923.36 -501 922 C-500.01 921.67 -499.02 921.34 -498 921 C-496.79117904 918.99983534 -496.79117904 918.99983534 -496 917 C-493.36 917 -490.72 917 -488 917 C-488 915.68 -488 914.36 -488 913 C-485.03 913 -482.06 913 -479 913 C-479 911.35 -479 909.7 -479 908 C-477.68 908 -476.36 908 -475 908 C-474.67 906.68 -474.34 905.36 -474 904 C-471.36 904 -468.72 904 -466 904 C-465.67 902.35 -465.34 900.7 -465 899 C-462.36 899 -459.72 899 -457 899 C-457 897.68 -457 896.36 -457 895 C-455.35 895 -453.7 895 -452 895 C-452 893.68 -452 892.36 -452 891 C-449.29120665 889.64560332 -446.99066732 889.93498549 -444 890 C-443.67 888.68 -443.34 887.36 -443 886 C-440.36 886 -437.72 886 -435 886 C-434.67 884.35 -434.34 882.7 -434 881 C-432.68 881 -431.36 881 -430 881 C-429.67 879.68 -429.34 878.36 -429 877 C-426.36 877 -423.72 877 -421 877 C-421 875.68 -421 874.36 -421 873 C-418.36 872.67 -415.72 872.34 -413 872 C-412.67 870.68 -412.34 869.36 -412 868 C-410.68 868 -409.36 868 -408 868 C-408 866.68 -408 865.36 -408 864 C-405.03 864 -402.06 864 -399 864 C-399 862.35 -399 860.7 -399 859 C-396.03 859 -393.06 859 -390 859 C-390 857.68 -390 856.36 -390 855 C-388.68 855 -387.36 855 -386 855 C-385.67 853.35 -385.34 851.7 -385 850 C-382.36 850 -379.72 850 -377 850 C-377 848.68 -377 847.36 -377 846 C-375.68 846 -374.36 846 -373 846 C-372.87625 845.360625 -372.7525 844.72125 -372.625 844.0625 C-372.41875 843.381875 -372.2125 842.70125 -372 842 C-369.29120665 840.64560332 -366.99066732 840.93498549 -364 841 C-363.67 839.68 -363.34 838.36 -363 837 C-360.36 837 -357.72 837 -355 837 C-354.67 835.35 -354.34 833.7 -354 832 C-352.68 832 -351.36 832 -350 832 C-350 830.68 -350 829.36 -350 828 C-347.36 828 -344.72 828 -342 828 C-341.67 826.68 -341.34 825.36 -341 824 C-338.36 824 -335.72 824 -333 824 C-333 822.35 -333 820.7 -333 819 C-331.35 819 -329.7 819 -328 819 C-328 817.68 -328 816.36 -328 815 C-325.03 815 -322.06 815 -319 815 C-319 813.35 -319 811.7 -319 810 C-316.36 810 -313.72 810 -311 810 C-310.67 808.68 -310.34 807.36 -310 806 C-308.68 806 -307.36 806 -306 806 C-306 804.68 -306 803.36 -306 802 C-303.04335481 800.5216774 -300.25770263 800.93967217 -297 801 C-297 799.68 -297 798.36 -297 797 C-294.03 797 -291.06 797 -288 797 C-288 795.35 -288 793.7 -288 792 C-286.68 792 -285.36 792 -284 792 C-283.67 790.68 -283.34 789.36 -283 788 C-280.36 788 -277.72 788 -275 788 C-275 786.68 -275 785.36 -275 784 C-272.04335481 782.5216774 -269.25770263 782.93967217 -266 783 C-266 781.68 -266 780.36 -266 779 C-264.68 779 -263.36 779 -262 779 C-261.67 777.68 -261.34 776.36 -261 775 C-258.36 775 -255.72 775 -253 775 C-253 773.35 -253 771.7 -253 770 C-250.03 770 -247.06 770 -244 770 C-244 768.68 -244 767.36 -244 766 C-242.68 766 -241.36 766 -240 766 C-239.855625 765.360625 -239.71125 764.72125 -239.5625 764.0625 C-239 762 -239 762 -238 761 C-235.66702567 760.95907063 -233.33294775 760.95758277 -231 761 C-231 759.68 -231 758.36 -231 757 C-228.03 757 -225.06 757 -222 757 C-222 755.35 -222 753.7 -222 752 C-220.35 752 -218.7 752 -217 752 C-217 750.68 -217 749.36 -217 748 C-214.36 748 -211.72 748 -209 748 C-208.67 746.35 -208.34 744.7 -208 743 C-205.36 743 -202.72 743 -200 743 C-200 741.68 -200 740.36 -200 739 C-198.35 739 -196.7 739 -195 739 C-195 737.68 -195 736.36 -195 735 C-192.03 734.67 -189.06 734.34 -186 734 C-186 732.68 -186 731.36 -186 730 C-183.36 730 -180.72 730 -178 730 C-177.67 728.68 -177.34 727.36 -177 726 C-175.68 726 -174.36 726 -173 726 C-172.67 724.35 -172.34 722.7 -172 721 C-169.36 721 -166.72 721 -164 721 C-164 719.68 -164 718.36 -164 717 C-161.03 717 -158.06 717 -155 717 C-155 715.35 -155 713.7 -155 712 C-153.68 712 -152.36 712 -151 712 C-151 710.68 -151 709.36 -151 708 C-148.03 708 -145.06 708 -142 708 C-141.67 706.35 -141.34 704.7 -141 703 C-138.36 703 -135.72 703 -133 703 C-133 701.68 -133 700.36 -133 699 C-131.68 699 -130.36 699 -129 699 C-129 697.68 -129 696.36 -129 695 C-126.04335481 693.5216774 -123.25770263 693.93967217 -120 694 C-120 692.68 -120 691.36 -120 690 C-117.03 690 -114.06 690 -111 690 C-110.67 688.35 -110.34 686.7 -110 685 C-109.01 685 -108.02 685 -107 685 C-106.67 683.68 -106.34 682.36 -106 681 C-103.36 681 -100.72 681 -98 681 C-98 679.68 -98 678.36 -98 677 C-96.35 677 -94.7 677 -93 677 C-93 671.06 -93 665.12 -93 659 C-94.65 658.67 -96.3 658.34 -98 658 C-98 655.36 -98 652.72 -98 650 C-99.32 650 -100.64 650 -102 650 C-102 647.03 -102 644.06 -102 641 C-103.32 641 -104.64 641 -106 641 C-107.4783226 638.04335481 -107.06032783 635.25770263 -107 632 C-108.32 631.67 -109.64 631.34 -111 631 C-111 627.04 -111 623.08 -111 619 C-112.32 619 -113.64 619 -115 619 C-115 616.03 -115 613.06 -115 610 C-116.65 609.67 -118.3 609.34 -120 609 C-120 606.36 -120 603.72 -120 601 C-121.32 600.67 -122.64 600.34 -124 600 C-124 597.36 -124 594.72 -124 592 C-124.639375 591.855625 -125.27875 591.71125 -125.9375 591.5625 C-128 591 -128 591 -129 590 C-129.07226502 588.14712498 -129.0838122 586.29166122 -129.0625 584.4375 C-129.04896484 582.91962891 -129.04896484 582.91962891 -129.03515625 581.37109375 C-129.01775391 580.19740234 -129.01775391 580.19740234 -129 579 C-130.32 578.67 -131.64 578.34 -133 578 C-133 575.36 -133 572.72 -133 570 C-133.639375 569.87625 -134.27875 569.7525 -134.9375 569.625 C-135.618125 569.41875 -136.29875 569.2125 -137 569 C-138.32229189 566.35541621 -138.09677194 564.32238699 -138.0625 561.375 C-138.04896484 559.87066406 -138.04896484 559.87066406 -138.03515625 558.3359375 C-138.01775391 557.17964844 -138.01775391 557.17964844 -138 556 C-139.32 556 -140.64 556 -142 556 C-142 553.03 -142 550.06 -142 547 C-143.32 547 -144.64 547 -146 547 C-146.33 544.03 -146.66 541.06 -147 538 C-148.32 537.67 -149.64 537.34 -151 537 C-151 533.04 -151 529.08 -151 525 C-152.32 525 -153.64 525 -155 525 C-155 522.03 -155 519.06 -155 516 C-156.65 515.67 -158.3 515.34 -160 515 C-160 512.36 -160 509.72 -160 507 C-161.32 507 -162.64 507 -164 507 C-164 505.68 -164 504.36 -164 503 C-168.62 503 -173.24 503 -178 503 C-178 504.32 -178 505.64 -178 507 C-180.64 507 -183.28 507 -186 507 C-186.33 508.65 -186.66 510.3 -187 512 C-188.32 512 -189.64 512 -191 512 C-191 513.32 -191 514.64 -191 516 C-193.97 516 -196.94 516 -200 516 C-200 517.65 -200 519.3 -200 521 C-201.32 521 -202.64 521 -204 521 C-204.33 522.32 -204.66 523.64 -205 525 C-207.64 525 -210.28 525 -213 525 C-213 526.32 -213 527.64 -213 529 C-215.95664519 530.4783226 -218.74229737 530.06032783 -222 530 C-222 531.32 -222 532.64 -222 534 C-223.32 534 -224.64 534 -226 534 C-226.33 535.32 -226.66 536.64 -227 538 C-229.64 538 -232.28 538 -235 538 C-235.33 539.65 -235.66 541.3 -236 543 C-238.64 543 -241.28 543 -244 543 C-244 544.32 -244 545.64 -244 547 C-245.65 547 -247.3 547 -249 547 C-249 548.65 -249 550.3 -249 552 C-251.64 552 -254.28 552 -257 552 C-257.33 553.32 -257.66 554.64 -258 556 C-260.64 556 -263.28 556 -266 556 C-266.33 557.65 -266.66 559.3 -267 561 C-268.32 561 -269.64 561 -271 561 C-271 562.32 -271 563.64 -271 565 C-273.97 565 -276.94 565 -280 565 C-280 566.65 -280 568.3 -280 570 C-281.32 570 -282.64 570 -284 570 C-284.33 571.32 -284.66 572.64 -285 574 C-287.64 574 -290.28 574 -293 574 C-293 575.32 -293 576.64 -293 578 C-295.97 578.33 -298.94 578.66 -302 579 C-302 580.32 -302 581.64 -302 583 C-303.32 583 -304.64 583 -306 583 C-306.33 584.32 -306.66 585.64 -307 587 C-309.64 587 -312.28 587 -315 587 C-315 588.65 -315 590.3 -315 592 C-317.97 592 -320.94 592 -324 592 C-324 593.32 -324 594.64 -324 596 C-326.97 596 -329.94 596 -333 596 C-333 597.65 -333 599.3 -333 601 C-336.96 601 -340.92 601 -345 601 C-345.33 599.35 -345.66 597.7 -346 596 C-347.32 596 -348.64 596 -350 596 C-350.33 594.68 -350.66 593.36 -351 592 C-352.32 592 -353.64 592 -355 592 C-355 590.35 -355 588.7 -355 587 C-356.32 587 -357.64 587 -359 587 C-359 584.03 -359 581.06 -359 578 C-360.65 577.67 -362.3 577.34 -364 577 C-364 574.69 -364 572.38 -364 570 C-365.32 569.67 -366.64 569.34 -368 569 C-368 566.36 -368 563.72 -368 561 C-369.65 560.67 -371.3 560.34 -373 560 C-373 557.36 -373 554.72 -373 552 C-374.32 552 -375.64 552 -377 552 C-377 549.03 -377 546.06 -377 543 C-378.32 543 -379.64 543 -381 543 C-382.4783226 540.04335481 -382.06032783 537.25770263 -382 534 C-383.32 534 -384.64 534 -386 534 C-386 531.03 -386 528.06 -386 525 C-387.32 525 -388.64 525 -390 525 C-390 522.03 -390 519.06 -390 516 C-391.65 516 -393.3 516 -395 516 C-395 513.03 -395 510.06 -395 507 C-396.32 507 -397.64 507 -399 507 C-399 504.03 -399 501.06 -399 498 C-400.65 498 -402.3 498 -404 498 C-404 495.03 -404 492.06 -404 489 C-405.32 489 -406.64 489 -408 489 C-408 486.36 -408 483.72 -408 481 C-409.32 481 -410.64 481 -412 481 C-413.4783226 478.04335481 -413.06032783 475.25770263 -413 472 C-414.32 471.67 -415.64 471.34 -417 471 C-417 469.68 -417 468.36 -417 467 C-418.32 467 -419.64 467 -421 467 C-421 464.03 -421 461.06 -421 458 C-422.65 457.67 -424.3 457.34 -426 457 C-426 454.36 -426 451.72 -426 449 C-427.32 449 -428.64 449 -430 449 C-430 446.03 -430 443.06 -430 440 C-431.32 440 -432.64 440 -434 440 C-435.4783226 437.04335481 -435.06032783 434.25770263 -435 431 C-436.32 431 -437.64 431 -439 431 C-439 428.36 -439 425.72 -439 423 C-439.639375 422.87625 -440.27875 422.7525 -440.9375 422.625 C-441.9584375 422.315625 -441.9584375 422.315625 -443 422 C-444.35439668 419.29120665 -444.06501451 416.99066732 -444 414 C-445.32 413.67 -446.64 413.34 -448 413 C-448 410.36 -448 407.72 -448 405 C-449.32 405 -450.64 405 -452 405 C-452.33 402.03 -452.66 399.06 -453 396 C-454.32 395.67 -455.64 395.34 -457 395 C-457 392.36 -457 389.72 -457 387 C-458.32 387 -459.64 387 -461 387 C-461 384.03 -461 381.06 -461 378 C-462.65 378 -464.3 378 -466 378 C-466 375.03 -466 372.06 -466 369 C-467.32 369 -468.64 369 -470 369 C-470 366.03 -470 363.06 -470 360 C-471.65 360 -473.3 360 -475 360 C-475 357.03 -475 354.06 -475 351 C-476.32 351 -477.64 351 -479 351 C-479 348.36 -479 345.72 -479 343 C-480.65 342.34 -482.3 341.68 -484 341 C-484 338.69 -484 336.38 -484 334 C-485.32 333.67 -486.64 333.34 -488 333 C-488 331.68 -488 330.36 -488 329 C-489.32 328.67 -490.64 328.34 -492 328 C-492 325.36 -492 322.72 -492 320 C-493.32 320 -494.64 320 -496 320 C-497.4783226 317.04335481 -497.06032783 314.25770263 -497 311 C-498.32 311 -499.64 311 -501 311 C-501 306.71 -501 302.42 -501 298 C-502.65 297.67 -504.3 297.34 -506 297 C-506 293.04 -506 289.08 -506 285 C-504.35 285 -502.7 285 -501 285 C-501 282.03 -501 279.06 -501 276 C-498.03 276 -495.06 276 -492 276 C-492 274.35 -492 272.7 -492 271 C-490.68 271 -489.36 271 -488 271 C-487.67 269.68 -487.34 268.36 -487 267 C-484.36 267 -481.72 267 -479 267 C-479 265.68 -479 264.36 -479 263 C-476.03 262.67 -473.06 262.34 -470 262 C-470 260.68 -470 259.36 -470 258 C-467.03 258 -464.06 258 -461 258 C-461 256.68 -461 255.36 -461 254 C-458.36 253.67 -455.72 253.34 -453 253 C-452.67 251.68 -452.34 250.36 -452 249 C-449.36 249 -446.72 249 -444 249 C-444 247.68 -444 246.36 -444 245 C-442.35 245 -440.7 245 -439 245 C-438.67 243.35 -438.34 241.7 -438 240 C-435.36 240 -432.72 240 -430 240 C-430 238.68 -430 237.36 -430 236 C-427.03 236 -424.06 236 -421 236 C-420.67 234.35 -420.34 232.7 -420 231 C-417.69 231 -415.38 231 -413 231 C-412.67 229.68 -412.34 228.36 -412 227 C-409.36 227 -406.72 227 -404 227 C-403.67 225.35 -403.34 223.7 -403 222 C-400.36 222 -397.72 222 -395 222 C-395 220.68 -395 219.36 -395 218 C-393.35 218 -391.7 218 -390 218 C-390 216.68 -390 215.36 -390 214 C-387.36 213.67 -384.72 213.34 -382 213 C-381.67 211.68 -381.34 210.36 -381 209 C-378.36 209 -375.72 209 -373 209 C-372.67 207.68 -372.34 206.36 -372 205 C-369.36 205 -366.72 205 -364 205 C-364 203.35 -364 201.7 -364 200 C-361.03 200 -358.06 200 -355 200 C-355 198.68 -355 197.36 -355 196 C-352.03 196 -349.06 196 -346 196 C-346 194.35 -346 192.7 -346 191 C-344.68 191 -343.36 191 -342 191 C-341.67 189.68 -341.34 188.36 -341 187 C-338.36 187 -335.72 187 -333 187 C-332.67 185.35 -332.34 183.7 -332 182 C-329.36 182 -326.72 182 -324 182 C-323.67 180.68 -323.34 179.36 -323 178 C-320.36 178 -317.72 178 -315 178 C-314.67 176.35 -314.34 174.7 -314 173 C-311.36 173 -308.72 173 -306 173 C-306 171.68 -306 170.36 -306 169 C-303.03 169 -300.06 169 -297 169 C-297 167.35 -297 165.7 -297 164 C-295.68 164 -294.36 164 -293 164 C-292.67 162.68 -292.34 161.36 -292 160 C-289.36 160 -286.72 160 -284 160 C-284 158.68 -284 157.36 -284 156 C-281.03 156 -278.06 156 -275 156 C-275 154.35 -275 152.7 -275 151 C-272.03 151 -269.06 151 -266 151 C-266 149.68 -266 148.36 -266 147 C-263.03 147 -260.06 147 -257 147 C-257 145.35 -257 143.7 -257 142 C-255.68 142 -254.36 142 -253 142 C-252.67 140.68 -252.34 139.36 -252 138 C-249.36 138 -246.72 138 -244 138 C-244 136.68 -244 135.36 -244 134 C-241.04335481 132.5216774 -238.25770263 132.93967217 -235 133 C-235 131.68 -235 130.36 -235 129 C-232.03 129 -229.06 129 -226 129 C-226 127.35 -226 125.7 -226 124 C-223.03 124 -220.06 124 -217 124 C-217 122.68 -217 121.36 -217 120 C-214.36 120 -211.72 120 -209 120 C-208.67 118.68 -208.34 117.36 -208 116 C-206.68 115.67 -205.36 115.34 -204 115 C-203.67 113.68 -203.34 112.36 -203 111 C-200.36 111 -197.72 111 -195 111 C-195 109.68 -195 108.36 -195 107 C-192.03 107 -189.06 107 -186 107 C-186 105.35 -186 103.7 -186 102 C-183.36 102 -180.72 102 -178 102 C-177.67 100.68 -177.34 99.36 -177 98 C-174.36 98 -171.72 98 -169 98 C-168.67 96.35 -168.34 94.7 -168 93 C-165.36 93 -162.72 93 -160 93 C-160 91.68 -160 90.36 -160 89 C-158.35 89 -156.7 89 -155 89 C-155 87.68 -155 86.36 -155 85 C-152.04335481 83.5216774 -149.25770263 83.93967217 -146 84 C-146 82.68 -146 81.36 -146 80 C-143.36 80 -140.72 80 -138 80 C-137.34 78.35 -136.68 76.7 -136 75 C-133.69 75 -131.38 75 -129 75 C-129 73.68 -129 72.36 -129 71 C-126.03 71 -123.06 71 -120 71 C-120 69.68 -120 68.36 -120 67 C-117.04335481 65.5216774 -114.25770263 65.93967217 -111 66 C-111 64.68 -111 63.36 -111 62 C-109.35 62 -107.7 62 -106 62 C-106 60.68 -106 59.36 -106 58 C-103.36 58 -100.72 58 -98 58 C-97.67 56.35 -97.34 54.7 -97 53 C-94.36 53 -91.72 53 -89 53 C-89 51.68 -89 50.36 -89 49 C-86.03 49 -83.06 49 -80 49 C-80 47.35 -80 45.7 -80 44 C-77.03 44 -74.06 44 -71 44 C-71 42.68 -71 41.36 -71 40 C-69.68 40 -68.36 40 -67 40 C-66.87625 39.360625 -66.7525 38.72125 -66.625 38.0625 C-66.41875 37.381875 -66.2125 36.70125 -66 36 C-63.29120665 34.64560332 -60.99066732 34.93498549 -58 35 C-57.67 33.68 -57.34 32.36 -57 31 C-54.36 31 -51.72 31 -49 31 C-48.67 29.35 -48.34 27.7 -48 26 C-45.36 26 -42.72 26 -40 26 C-40 24.68 -40 23.36 -40 22 C-37.03 22 -34.06 22 -31 22 C-31 20.68 -31 19.36 -31 18 C-30.01 17.67 -29.02 17.34 -28 17 C-26.79117904 14.99983534 -26.79117904 14.99983534 -26 13 C-23.36 13 -20.72 13 -18 13 C-18 11.68 -18 10.36 -18 9 C-15.03 9 -12.06 9 -9 9 C-8.67 7.35 -8.34 5.7 -8 4 C-5.36 4 -2.72 4 0 4 C0 2.68 0 1.36 0 0 Z " fill="#FF0000" transform="translate(1600,715)"/>
</svg>
